<?xml version="1.0" encoding="UTF-8"?>
<svg width="252px" height="253px" viewBox="0 0 252 253" version="1.1" xmlns="http://www.w3.org/2000/svg" xmlns:xlink="http://www.w3.org/1999/xlink">
    <!-- Generator: Sketch 52.6 (67491) - http://www.bohemiancoding.com/sketch -->
    <title>Group</title>
    <desc>Created with Sketch.</desc>
    <g id="Page-1" stroke="none" stroke-width="1" fill="none" fill-rule="evenodd">
        <g id="Artboard" transform="translate(-1.000000, 0.000000)">
            <g id="Group" transform="translate(1.000000, 0.000000)">
                <rect id="Rectangle-Copy-17" fill-opacity="0.93" fill="#FAF63B" x="0" y="-1.42108547e-14" width="252.893617" height="91.4723618"></rect>
                <path d="M70.3488028,131.359995 L70.3488028,124.390395 L95.5872015,94.927997 C103.190401,86.0575974 106.147201,82.6783976 106.147201,76.4479979 C106.147201,69.2671983 101.817601,64.1983985 92.9472017,64.1983985 C84.2880021,64.1983985 79.1136024,69.1615983 79.1136024,78.1375978 L70.1376028,78.1375978 C70.1376028,65.2543985 78.4800024,56.1727989 92.9472017,56.1727989 C106.992001,56.1727989 115.334401,64.8319985 115.334401,76.1311979 C115.334401,84.3679975 110.899201,89.8591972 101.712001,100.524797 L82.5984022,122.700796 L82.5984022,123.123196 L116.496,123.123196 L116.496,131.359995 L70.3488028,131.359995 Z M158.735998,132.310395 C139.622399,132.310395 132.9696,116.259196 132.9696,94.188797 C132.9696,72.2239981 139.622399,56.1727989 158.735998,56.1727989 C177.849597,56.1727989 184.502397,72.2239981 184.502397,94.188797 C184.502397,116.259196 177.849597,132.310395 158.735998,132.310395 Z M158.735998,124.284795 C172.147198,124.284795 175.315198,110.345596 175.315198,94.188797 C175.315198,78.1375978 172.041598,64.1983985 158.735998,64.1983985 C145.430399,64.1983985 142.156799,78.1375978 142.156799,94.188797 C142.156799,110.345596 145.324799,124.284795 158.735998,124.284795 Z M91.5744017,228.67039 C78.7968024,228.67039 70.0320028,220.961591 68.6592029,209.556791 L77.8464024,209.556791 C78.5856024,216.315191 83.9712021,220.539191 91.5744017,220.539191 C104.985601,220.539191 109.737601,207.022391 109.737601,191.604792 L109.315201,191.604792 C106.147201,197.623992 100.444801,201.742392 91.3632018,201.742392 C76.1568025,201.742392 67.8144029,190.865592 67.8144029,177.454393 C67.8144029,163.409594 77.1072025,152.532794 92.6304017,152.532794 C111.638401,152.532794 118.7136,168.372793 118.7136,189.281592 C118.7136,209.979191 111.532801,228.67039 91.5744017,228.67039 Z M92.5248017,193.822392 C102.979201,193.822392 108.153601,186.535992 108.153601,177.348793 C108.153601,168.161593 102.662401,160.558394 92.5248017,160.558394 C82.3872022,160.558394 77.0016025,168.055993 77.0016025,177.243193 C77.0016025,186.535992 82.2816022,193.822392 92.5248017,193.822392 Z M156.940798,228.67039 C144.163199,228.67039 135.3984,220.961591 134.0256,209.556791 L143.212799,209.556791 C143.951999,216.315191 149.337599,220.539191 156.940798,220.539191 C170.351998,220.539191 175.103998,207.022391 175.103998,191.604792 L174.681598,191.604792 C171.513598,197.623992 165.811198,201.742392 156.729598,201.742392 C141.523199,201.742392 133.1808,190.865592 133.1808,177.454393 C133.1808,163.409594 142.473599,152.532794 157.996798,152.532794 C177.004797,152.532794 184.079997,168.372793 184.079997,189.281592 C184.079997,209.979191 176.899197,228.67039 156.940798,228.67039 Z M157.891198,193.822392 C168.345598,193.822392 173.519998,186.535992 173.519998,177.348793 C173.519998,168.161593 168.028798,160.558394 157.891198,160.558394 C147.753599,160.558394 142.367999,168.055993 142.367999,177.243193 C142.367999,186.535992 147.647999,193.822392 157.891198,193.822392 Z" id="20-99" fill="#000000"></path>
                <rect id="Rectangle-Copy-18" stroke="#000000" stroke-width="4" x="28" y="32" width="194" height="219"></rect>
            </g>
        </g>
    </g>
</svg>